<mxfile host="app.diagrams.net" modified="2023-10-11T23:42:17.956Z" agent="Mozilla/5.0 (Windows NT 10.0; Win64; x64) AppleWebKit/537.36 (KHTML, like Gecko) Chrome/109.0.0.0 Safari/537.36" etag="bV2Kr2G5zS3DMzRWTjS4" version="22.0.4" type="device">
  <diagram name="Page-1" id="2YBvvXClWsGukQMizWep">
    <mxGraphModel dx="1120" dy="447" grid="1" gridSize="10" guides="1" tooltips="1" connect="1" arrows="1" fold="1" page="1" pageScale="1" pageWidth="850" pageHeight="1100" math="0" shadow="0">
      <root>
        <mxCell id="0" />
        <mxCell id="1" parent="0" />
        <mxCell id="aM9ryv3xv72pqoxQDRHE-1" value=":Client" style="shape=umlLifeline;perimeter=lifelinePerimeter;whiteSpace=wrap;html=1;container=0;dropTarget=0;collapsible=0;recursiveResize=0;outlineConnect=0;portConstraint=eastwest;newEdgeStyle={&quot;edgeStyle&quot;:&quot;elbowEdgeStyle&quot;,&quot;elbow&quot;:&quot;vertical&quot;,&quot;curved&quot;:0,&quot;rounded&quot;:0};" parent="1" vertex="1">
          <mxGeometry x="80" y="40" width="100" height="860" as="geometry" />
        </mxCell>
        <mxCell id="aM9ryv3xv72pqoxQDRHE-5" value=":Platform" style="shape=umlLifeline;perimeter=lifelinePerimeter;whiteSpace=wrap;html=1;container=0;dropTarget=0;collapsible=0;recursiveResize=0;outlineConnect=0;portConstraint=eastwest;newEdgeStyle={&quot;edgeStyle&quot;:&quot;elbowEdgeStyle&quot;,&quot;elbow&quot;:&quot;vertical&quot;,&quot;curved&quot;:0,&quot;rounded&quot;:0};" parent="1" vertex="1">
          <mxGeometry x="350" y="40" width="100" height="860" as="geometry" />
        </mxCell>
        <mxCell id="UsfUipYroMZ178Q5B1vN-1" value=":Freelancers" style="shape=umlLifeline;perimeter=lifelinePerimeter;whiteSpace=wrap;html=1;container=0;dropTarget=0;collapsible=0;recursiveResize=0;outlineConnect=0;portConstraint=eastwest;newEdgeStyle={&quot;edgeStyle&quot;:&quot;elbowEdgeStyle&quot;,&quot;elbow&quot;:&quot;vertical&quot;,&quot;curved&quot;:0,&quot;rounded&quot;:0};" parent="1" vertex="1">
          <mxGeometry x="620" y="40" width="100" height="860" as="geometry" />
        </mxCell>
        <mxCell id="UsfUipYroMZ178Q5B1vN-5" value="" style="endArrow=open;html=1;rounded=0;" parent="1" edge="1">
          <mxGeometry width="50" height="50" relative="1" as="geometry">
            <mxPoint x="130" y="130" as="sourcePoint" />
            <mxPoint x="400" y="130" as="targetPoint" />
            <Array as="points">
              <mxPoint x="220" y="130" />
            </Array>
          </mxGeometry>
        </mxCell>
        <mxCell id="UsfUipYroMZ178Q5B1vN-6" value="Creates a new project&lt;br&gt;(Amount, Details &amp;amp; Deadline)" style="text;html=1;align=center;verticalAlign=middle;resizable=0;points=[];autosize=1;strokeColor=none;fillColor=none;" parent="1" vertex="1">
          <mxGeometry x="170" y="110" width="180" height="40" as="geometry" />
        </mxCell>
        <mxCell id="UsfUipYroMZ178Q5B1vN-7" value="" style="endArrow=open;html=1;rounded=0;dashed=1;" parent="1" source="aM9ryv3xv72pqoxQDRHE-5" target="aM9ryv3xv72pqoxQDRHE-1" edge="1">
          <mxGeometry width="50" height="50" relative="1" as="geometry">
            <mxPoint x="370" y="190" as="sourcePoint" />
            <mxPoint x="450" y="210" as="targetPoint" />
            <Array as="points">
              <mxPoint x="310" y="190" />
            </Array>
          </mxGeometry>
        </mxCell>
        <mxCell id="UsfUipYroMZ178Q5B1vN-9" value="Forwards the list of bids" style="text;html=1;strokeColor=none;fillColor=none;align=center;verticalAlign=middle;whiteSpace=wrap;rounded=0;" parent="1" vertex="1">
          <mxGeometry x="175" y="170" width="180" height="20" as="geometry" />
        </mxCell>
        <mxCell id="UsfUipYroMZ178Q5B1vN-15" value="" style="endArrow=open;html=1;rounded=0;" parent="1" edge="1">
          <mxGeometry width="50" height="50" relative="1" as="geometry">
            <mxPoint x="130" y="220" as="sourcePoint" />
            <mxPoint x="400" y="220" as="targetPoint" />
            <Array as="points">
              <mxPoint x="220" y="220" />
            </Array>
          </mxGeometry>
        </mxCell>
        <mxCell id="UsfUipYroMZ178Q5B1vN-16" value="Selects freelancers for the project" style="text;html=1;strokeColor=none;fillColor=none;align=center;verticalAlign=middle;whiteSpace=wrap;rounded=0;" parent="1" vertex="1">
          <mxGeometry x="150" y="200" width="220" height="20" as="geometry" />
        </mxCell>
        <mxCell id="UsfUipYroMZ178Q5B1vN-21" value="" style="endArrow=open;html=1;rounded=0;dashed=1;" parent="1" edge="1">
          <mxGeometry width="50" height="50" relative="1" as="geometry">
            <mxPoint x="400" y="350" as="sourcePoint" />
            <mxPoint x="130" y="350" as="targetPoint" />
            <Array as="points">
              <mxPoint x="310" y="350" />
            </Array>
          </mxGeometry>
        </mxCell>
        <mxCell id="UsfUipYroMZ178Q5B1vN-22" value="Forwards work to the client" style="text;html=1;strokeColor=none;fillColor=none;align=center;verticalAlign=middle;whiteSpace=wrap;rounded=0;" parent="1" vertex="1">
          <mxGeometry x="170" y="330" width="180" height="20" as="geometry" />
        </mxCell>
        <mxCell id="UsfUipYroMZ178Q5B1vN-23" value="" style="endArrow=open;html=1;rounded=0;" parent="1" edge="1">
          <mxGeometry width="50" height="50" relative="1" as="geometry">
            <mxPoint x="129.5" y="380" as="sourcePoint" />
            <mxPoint x="400" y="380" as="targetPoint" />
            <Array as="points">
              <mxPoint x="220" y="380" />
            </Array>
          </mxGeometry>
        </mxCell>
        <mxCell id="UsfUipYroMZ178Q5B1vN-24" value="Request changes or resubmisson = YES" style="text;html=1;strokeColor=none;fillColor=none;align=center;verticalAlign=middle;whiteSpace=wrap;rounded=0;" parent="1" vertex="1">
          <mxGeometry x="150" y="360" width="230" height="20" as="geometry" />
        </mxCell>
        <mxCell id="UsfUipYroMZ178Q5B1vN-25" value="" style="endArrow=open;html=1;rounded=0;dashed=1;" parent="1" edge="1">
          <mxGeometry width="50" height="50" relative="1" as="geometry">
            <mxPoint x="400" y="470" as="sourcePoint" />
            <mxPoint x="130" y="470" as="targetPoint" />
            <Array as="points">
              <mxPoint x="310" y="470" />
            </Array>
          </mxGeometry>
        </mxCell>
        <mxCell id="UsfUipYroMZ178Q5B1vN-26" value="" style="endArrow=open;html=1;rounded=0;" parent="1" edge="1">
          <mxGeometry width="50" height="50" relative="1" as="geometry">
            <mxPoint x="130" y="510" as="sourcePoint" />
            <mxPoint x="400" y="510" as="targetPoint" />
            <Array as="points">
              <mxPoint x="220" y="510" />
            </Array>
          </mxGeometry>
        </mxCell>
        <mxCell id="UsfUipYroMZ178Q5B1vN-27" value="" style="endArrow=open;html=1;rounded=0;dashed=1;" parent="1" edge="1">
          <mxGeometry width="50" height="50" relative="1" as="geometry">
            <mxPoint x="400" y="640" as="sourcePoint" />
            <mxPoint x="130" y="640" as="targetPoint" />
            <Array as="points">
              <mxPoint x="310" y="640" />
            </Array>
          </mxGeometry>
        </mxCell>
        <mxCell id="UsfUipYroMZ178Q5B1vN-28" value="" style="endArrow=open;html=1;rounded=0;" parent="1" edge="1">
          <mxGeometry width="50" height="50" relative="1" as="geometry">
            <mxPoint x="130" y="680" as="sourcePoint" />
            <mxPoint x="400" y="680" as="targetPoint" />
            <Array as="points">
              <mxPoint x="220" y="680" />
            </Array>
          </mxGeometry>
        </mxCell>
        <mxCell id="UsfUipYroMZ178Q5B1vN-33" value="" style="endArrow=open;html=1;rounded=0;dashed=0;" parent="1" edge="1">
          <mxGeometry width="50" height="50" relative="1" as="geometry">
            <mxPoint x="400" y="720" as="sourcePoint" />
            <mxPoint x="130" y="720" as="targetPoint" />
            <Array as="points">
              <mxPoint x="310" y="720" />
            </Array>
          </mxGeometry>
        </mxCell>
        <mxCell id="UsfUipYroMZ178Q5B1vN-35" value="" style="endArrow=open;html=1;rounded=0;" parent="1" edge="1">
          <mxGeometry width="50" height="50" relative="1" as="geometry">
            <mxPoint x="130" y="760" as="sourcePoint" />
            <mxPoint x="400" y="760" as="targetPoint" />
            <Array as="points">
              <mxPoint x="220" y="760" />
            </Array>
          </mxGeometry>
        </mxCell>
        <mxCell id="UsfUipYroMZ178Q5B1vN-36" value="" style="endArrow=open;html=1;rounded=0;dashed=1;" parent="1" edge="1">
          <mxGeometry width="50" height="50" relative="1" as="geometry">
            <mxPoint x="400" y="840" as="sourcePoint" />
            <mxPoint x="130" y="840" as="targetPoint" />
            <Array as="points">
              <mxPoint x="310" y="840" />
            </Array>
          </mxGeometry>
        </mxCell>
        <mxCell id="UsfUipYroMZ178Q5B1vN-39" value="" style="endArrow=open;html=1;rounded=0;" parent="1" edge="1">
          <mxGeometry width="50" height="50" relative="1" as="geometry">
            <mxPoint x="400" y="150" as="sourcePoint" />
            <mxPoint x="670" y="150" as="targetPoint" />
            <Array as="points">
              <mxPoint x="490" y="150" />
            </Array>
          </mxGeometry>
        </mxCell>
        <mxCell id="UsfUipYroMZ178Q5B1vN-40" value="" style="endArrow=open;html=1;rounded=0;dashed=0;" parent="1" edge="1">
          <mxGeometry width="50" height="50" relative="1" as="geometry">
            <mxPoint x="670" y="179.5" as="sourcePoint" />
            <mxPoint x="400" y="179.5" as="targetPoint" />
            <Array as="points">
              <mxPoint x="580" y="179.5" />
            </Array>
          </mxGeometry>
        </mxCell>
        <mxCell id="UsfUipYroMZ178Q5B1vN-41" value="" style="endArrow=open;html=1;rounded=0;" parent="1" edge="1">
          <mxGeometry width="50" height="50" relative="1" as="geometry">
            <mxPoint x="400" y="240" as="sourcePoint" />
            <mxPoint x="670" y="240" as="targetPoint" />
            <Array as="points">
              <mxPoint x="490" y="240" />
            </Array>
          </mxGeometry>
        </mxCell>
        <mxCell id="UsfUipYroMZ178Q5B1vN-42" value="" style="endArrow=open;html=1;rounded=0;dashed=0;" parent="1" edge="1">
          <mxGeometry width="50" height="50" relative="1" as="geometry">
            <mxPoint x="670" y="270" as="sourcePoint" />
            <mxPoint x="400" y="270" as="targetPoint" />
            <Array as="points">
              <mxPoint x="580" y="270" />
            </Array>
          </mxGeometry>
        </mxCell>
        <mxCell id="UsfUipYroMZ178Q5B1vN-43" value="" style="endArrow=open;html=1;rounded=0;" parent="1" edge="1">
          <mxGeometry width="50" height="50" relative="1" as="geometry">
            <mxPoint x="400" y="300" as="sourcePoint" />
            <mxPoint x="670" y="300" as="targetPoint" />
            <Array as="points">
              <mxPoint x="490" y="300" />
            </Array>
          </mxGeometry>
        </mxCell>
        <mxCell id="UsfUipYroMZ178Q5B1vN-44" value="" style="endArrow=open;html=1;rounded=0;dashed=0;" parent="1" edge="1">
          <mxGeometry width="50" height="50" relative="1" as="geometry">
            <mxPoint x="670" y="330" as="sourcePoint" />
            <mxPoint x="400" y="330" as="targetPoint" />
            <Array as="points">
              <mxPoint x="580" y="330" />
            </Array>
          </mxGeometry>
        </mxCell>
        <mxCell id="UsfUipYroMZ178Q5B1vN-47" value="" style="endArrow=open;html=1;rounded=0;" parent="1" edge="1">
          <mxGeometry width="50" height="50" relative="1" as="geometry">
            <mxPoint x="400" y="410" as="sourcePoint" />
            <mxPoint x="670" y="410" as="targetPoint" />
            <Array as="points">
              <mxPoint x="490" y="410" />
            </Array>
          </mxGeometry>
        </mxCell>
        <mxCell id="UsfUipYroMZ178Q5B1vN-48" value="" style="endArrow=open;html=1;rounded=0;dashed=0;" parent="1" edge="1">
          <mxGeometry width="50" height="50" relative="1" as="geometry">
            <mxPoint x="670" y="440" as="sourcePoint" />
            <mxPoint x="400" y="440" as="targetPoint" />
            <Array as="points">
              <mxPoint x="580" y="440" />
            </Array>
          </mxGeometry>
        </mxCell>
        <mxCell id="UsfUipYroMZ178Q5B1vN-49" value="" style="endArrow=open;html=1;rounded=0;dashed=1;" parent="1" edge="1">
          <mxGeometry width="50" height="50" relative="1" as="geometry">
            <mxPoint x="400" y="790" as="sourcePoint" />
            <mxPoint x="670" y="790" as="targetPoint" />
            <Array as="points">
              <mxPoint x="490" y="790" />
            </Array>
          </mxGeometry>
        </mxCell>
        <mxCell id="UsfUipYroMZ178Q5B1vN-51" value="" style="endArrow=open;html=1;rounded=0;dashed=0;" parent="1" edge="1">
          <mxGeometry width="50" height="50" relative="1" as="geometry">
            <mxPoint x="670" y="820" as="sourcePoint" />
            <mxPoint x="400" y="820" as="targetPoint" />
            <Array as="points">
              <mxPoint x="580" y="820" />
            </Array>
          </mxGeometry>
        </mxCell>
        <mxCell id="UsfUipYroMZ178Q5B1vN-53" value="" style="endArrow=open;html=1;rounded=0;" parent="1" target="aM9ryv3xv72pqoxQDRHE-5" edge="1">
          <mxGeometry width="50" height="50" relative="1" as="geometry">
            <mxPoint x="400" y="560" as="sourcePoint" />
            <mxPoint x="405" y="610" as="targetPoint" />
            <Array as="points">
              <mxPoint x="470" y="560" />
              <mxPoint x="470" y="610" />
            </Array>
          </mxGeometry>
        </mxCell>
        <mxCell id="UsfUipYroMZ178Q5B1vN-54" value="" style="endArrow=open;html=1;rounded=0;" parent="1" target="aM9ryv3xv72pqoxQDRHE-5" edge="1">
          <mxGeometry width="50" height="50" relative="1" as="geometry">
            <mxPoint x="400" y="840" as="sourcePoint" />
            <mxPoint x="405" y="890" as="targetPoint" />
            <Array as="points">
              <mxPoint x="470" y="840" />
              <mxPoint x="470" y="890" />
            </Array>
          </mxGeometry>
        </mxCell>
        <mxCell id="UsfUipYroMZ178Q5B1vN-55" value="Forwards updated work to the client" style="text;html=1;strokeColor=none;fillColor=none;align=center;verticalAlign=middle;whiteSpace=wrap;rounded=0;" parent="1" vertex="1">
          <mxGeometry x="145" y="450" width="230" height="20" as="geometry" />
        </mxCell>
        <mxCell id="UsfUipYroMZ178Q5B1vN-56" value="Request changes or resubmisson = NO" style="text;html=1;strokeColor=none;fillColor=none;align=center;verticalAlign=middle;whiteSpace=wrap;rounded=0;" parent="1" vertex="1">
          <mxGeometry x="145" y="490" width="230" height="20" as="geometry" />
        </mxCell>
        <mxCell id="UsfUipYroMZ178Q5B1vN-57" value="Sends payment details" style="text;html=1;strokeColor=none;fillColor=none;align=center;verticalAlign=middle;whiteSpace=wrap;rounded=0;" parent="1" vertex="1">
          <mxGeometry x="150" y="620" width="230" height="20" as="geometry" />
        </mxCell>
        <mxCell id="UsfUipYroMZ178Q5B1vN-58" value="Make payment" style="text;html=1;strokeColor=none;fillColor=none;align=center;verticalAlign=middle;whiteSpace=wrap;rounded=0;" parent="1" vertex="1">
          <mxGeometry x="150" y="660" width="230" height="20" as="geometry" />
        </mxCell>
        <mxCell id="UsfUipYroMZ178Q5B1vN-61" value="Leave a feeback" style="text;html=1;strokeColor=none;fillColor=none;align=center;verticalAlign=middle;whiteSpace=wrap;rounded=0;" parent="1" vertex="1">
          <mxGeometry x="145" y="700" width="230" height="20" as="geometry" />
        </mxCell>
        <mxCell id="UsfUipYroMZ178Q5B1vN-62" value="Makes feedback" style="text;html=1;strokeColor=none;fillColor=none;align=center;verticalAlign=middle;whiteSpace=wrap;rounded=0;" parent="1" vertex="1">
          <mxGeometry x="150" y="740" width="230" height="20" as="geometry" />
        </mxCell>
        <mxCell id="UsfUipYroMZ178Q5B1vN-63" value="Notify about denial" style="text;html=1;strokeColor=none;fillColor=none;align=center;verticalAlign=middle;whiteSpace=wrap;rounded=0;" parent="1" vertex="1">
          <mxGeometry x="145" y="820" width="230" height="20" as="geometry" />
        </mxCell>
        <mxCell id="UsfUipYroMZ178Q5B1vN-64" value="Contacts the next&lt;br&gt;selected freelancer" style="text;html=1;strokeColor=none;fillColor=none;align=center;verticalAlign=middle;whiteSpace=wrap;rounded=0;" parent="1" vertex="1">
          <mxGeometry x="470" y="850" width="110" height="20" as="geometry" />
        </mxCell>
        <mxCell id="UsfUipYroMZ178Q5B1vN-65" value="Notified to the freelancers" style="text;html=1;strokeColor=none;fillColor=none;align=center;verticalAlign=middle;whiteSpace=wrap;rounded=0;" parent="1" vertex="1">
          <mxGeometry x="440" y="130" width="180" height="20" as="geometry" />
        </mxCell>
        <mxCell id="UsfUipYroMZ178Q5B1vN-66" value="Bid for the project" style="text;html=1;strokeColor=none;fillColor=none;align=center;verticalAlign=middle;whiteSpace=wrap;rounded=0;" parent="1" vertex="1">
          <mxGeometry x="440" y="160" width="180" height="20" as="geometry" />
        </mxCell>
        <mxCell id="UsfUipYroMZ178Q5B1vN-67" value="&lt;span style=&quot;color: rgb(0, 0, 0); font-family: Helvetica; font-size: 12px; font-style: normal; font-variant-ligatures: normal; font-variant-caps: normal; font-weight: 400; letter-spacing: normal; orphans: 2; text-align: center; text-indent: 0px; text-transform: none; widows: 2; word-spacing: 0px; -webkit-text-stroke-width: 0px; background-color: rgb(251, 251, 251); text-decoration-thickness: initial; text-decoration-style: initial; text-decoration-color: initial; float: none; display: inline !important;&quot;&gt;Notified the selected freelancer&lt;/span&gt;" style="text;whiteSpace=wrap;html=1;" parent="1" vertex="1">
          <mxGeometry x="445" y="210" width="200" height="20" as="geometry" />
        </mxCell>
        <mxCell id="UsfUipYroMZ178Q5B1vN-68" value="&lt;div style=&quot;text-align: center;&quot;&gt;Accept project offer = YES&lt;/div&gt;" style="text;whiteSpace=wrap;html=1;" parent="1" vertex="1">
          <mxGeometry x="470" y="250" width="150" height="30" as="geometry" />
        </mxCell>
        <mxCell id="UsfUipYroMZ178Q5B1vN-71" value="&lt;div style=&quot;text-align: center;&quot;&gt;Provides the project details&lt;/div&gt;" style="text;whiteSpace=wrap;html=1;" parent="1" vertex="1">
          <mxGeometry x="460" y="280" width="200" height="30" as="geometry" />
        </mxCell>
        <mxCell id="UsfUipYroMZ178Q5B1vN-72" value="&lt;div style=&quot;text-align: center;&quot;&gt;Submits work&lt;/div&gt;" style="text;whiteSpace=wrap;html=1;" parent="1" vertex="1">
          <mxGeometry x="500" y="310" width="90" height="30" as="geometry" />
        </mxCell>
        <mxCell id="UsfUipYroMZ178Q5B1vN-74" value="&lt;div style=&quot;text-align: center;&quot;&gt;Sends request for resubmission&lt;/div&gt;" style="text;whiteSpace=wrap;html=1;" parent="1" vertex="1">
          <mxGeometry x="440" y="390" width="200" height="30" as="geometry" />
        </mxCell>
        <mxCell id="UsfUipYroMZ178Q5B1vN-75" value="&lt;div style=&quot;text-align: center;&quot;&gt;Resubmits work&lt;/div&gt;" style="text;whiteSpace=wrap;html=1;" parent="1" vertex="1">
          <mxGeometry x="480" y="420" width="100" height="30" as="geometry" />
        </mxCell>
        <mxCell id="UsfUipYroMZ178Q5B1vN-76" value="&lt;div style=&quot;text-align: center;&quot;&gt;Generate payment details&lt;/div&gt;" style="text;whiteSpace=wrap;html=1;" parent="1" vertex="1">
          <mxGeometry x="475" y="570" width="100" height="30" as="geometry" />
        </mxCell>
        <mxCell id="UsfUipYroMZ178Q5B1vN-77" style="edgeStyle=orthogonalEdgeStyle;rounded=0;orthogonalLoop=1;jettySize=auto;html=1;exitX=0.5;exitY=1;exitDx=0;exitDy=0;" parent="1" source="UsfUipYroMZ178Q5B1vN-76" target="UsfUipYroMZ178Q5B1vN-76" edge="1">
          <mxGeometry relative="1" as="geometry" />
        </mxCell>
        <mxCell id="UsfUipYroMZ178Q5B1vN-78" value="&lt;div style=&quot;text-align: center;&quot;&gt;Sends payment and feedback&lt;/div&gt;" style="text;whiteSpace=wrap;html=1;" parent="1" vertex="1">
          <mxGeometry x="440" y="770" width="170" height="30" as="geometry" />
        </mxCell>
        <mxCell id="UsfUipYroMZ178Q5B1vN-79" value="&lt;div style=&quot;text-align: center;&quot;&gt;Accept project offer = NO&lt;/div&gt;" style="text;whiteSpace=wrap;html=1;" parent="1" vertex="1">
          <mxGeometry x="455" y="800" width="170" height="30" as="geometry" />
        </mxCell>
      </root>
    </mxGraphModel>
  </diagram>
</mxfile>
